<?xml version="1.0" encoding="UTF-8" ?>
<!DOCTYPE svg PUBLIC "-//W3C//DTD SVG 1.1//EN" "http://www.w3.org/Graphics/SVG/1.1/DTD/svg11.dtd">
<svg width="34pt" height="34pt" viewBox="0 0 34 34" version="1.1" xmlns="http://www.w3.org/2000/svg">
    <path fill="#ffffff" d="M 0.00 0.00 L 0.29 0.00 C 0.21 0.01 0.07 0.02 0.00 0.03 L 0.00 0.00 Z" />
    <path fill="#5481a2" d="M 0.29 0.00 L 33.76 0.00 C 33.82 0.06 33.94 0.17 34.00 0.23 L 34.00 33.76 C 33.94 33.82 33.83 33.94 33.77 34.00 L 30.59 34.00 C 27.85 29.57 25.04 25.17 21.47 21.34 C 23.42 20.04 25.71 19.00 27.05 16.99 C 29.58 12.81 28.22 6.53 23.69 4.33 C 16.38 0.66 7.85 1.64 0.00 2.47 L 0.00 0.03 C 0.07 0.02 0.21 0.01 0.29 0.00 Z" />
    <path fill="#ffffff" d="M 33.76 0.00 L 34.00 0.00 L 34.00 0.23 C 33.94 0.17 33.82 0.06 33.76 0.00 Z" />
    <path fill="#ffffff" d="M 0.00 2.47 C 7.85 1.64 16.38 0.66 23.69 4.33 C 28.22 6.53 29.58 12.81 27.05 16.99 C 25.71 19.00 23.42 20.04 21.47 21.34 C 25.04 25.17 27.85 29.57 30.59 34.00 L 20.60 34.00 C 17.96 30.08 15.44 26.07 12.33 22.49 C 10.89 22.48 9.46 22.46 8.02 22.43 C 8.00 26.29 7.99 30.14 8.00 34.00 L 0.00 34.00 L 0.00 2.47 Z" />
    <path fill="#5481a2" d="M 8.00 7.75 C 11.24 7.81 14.85 7.33 17.74 9.10 C 19.92 10.58 19.75 14.03 17.63 15.46 C 14.69 17.06 11.23 16.63 8.02 16.79 C 8.00 13.78 8.00 10.76 8.00 7.75 Z" />
    <path fill="#5481a2" d="M 8.02 22.43 C 9.46 22.46 10.89 22.48 12.33 22.49 C 15.44 26.07 17.96 30.08 20.60 34.00 L 8.00 34.00 C 7.99 30.14 8.00 26.29 8.02 22.43 Z" />
    <path fill="#ffffff" d="M 33.77 34.00 C 33.83 33.94 33.94 33.82 34.00 33.76 L 34.00 34.00 L 33.77 34.00 Z" />
</svg>
